<svg xmlns="http://www.w3.org/2000/svg" data-name="Layer 1" viewBox="0 0 100 100" x="0px" y="0px"><title>UI Project Icons</title><path d="M52.22,53.91L51,55.13l0.13,0.14,3,3a0.82,0.82,0,0,1,.19.36c0.09,0.37.16,0.75,0.25,1.13a0.39,0.39,0,0,0,.13.22l3.81,2.57,0.06,0,1-1-1.09-1.69C58,59.18,57.53,58.44,57,57.72a0.51,0.51,0,0,0-.32-0.22,3.1,3.1,0,0,1-2.15-1.18c-0.68-.8-1.46-1.51-2.19-2.26l-0.16-.15m-5.3-6.12L47.75,47l-0.16-.17q-2.66-2.72-5.32-5.42a2.34,2.34,0,0,0-2.55-.65,2.56,2.56,0,0,0-1.07,4.15c1.83,1.88,3.67,3.75,5.5,5.63l0,0L45,49.65a0.68,0.68,0,0,1-.18-0.11L39.45,44a1.81,1.81,0,0,1-.17-0.18,0.33,0.33,0,0,1,0-.46,0.31,0.31,0,0,1,.44-0.06,1.59,1.59,0,0,1,.22.2L45.34,49a1.47,1.47,0,0,1,.15.22l0.93-1-0.17-.18-5.4-5.52c-0.28-.28-0.32-0.46-0.15-0.64s0.36-.15.64,0.14l5.4,5.52,0.18,0.18m13.84-2.41a5.14,5.14,0,0,0-.21-2.81l-0.21.2L57.77,45.4a1.14,1.14,0,0,1-1.82,0l-1.1-1.12a1.16,1.16,0,0,1,0-1.7l2.71-2.77,0.24-.26c-0.49-.12-0.91-0.26-1.35-0.32a5.08,5.08,0,0,0-5.61,5.82,0.31,0.31,0,0,1,0,.08L44,52.09a0.79,0.79,0,0,1-.68.26,5,5,0,0,0-5.22,4.08,5.14,5.14,0,0,0,.21,2.81l0.21-.2,2.57-2.63a1.14,1.14,0,0,1,1.82,0l1.09,1.12a1.16,1.16,0,0,1,0,1.7L41.34,62l-0.24.26c0.48,0.12.91,0.26,1.35,0.32a5.08,5.08,0,0,0,5.61-5.82,0.45,0.45,0,0,1,.18-0.43l2.4-2.45V54l4.23-4.32a0.79,0.79,0,0,1,.68-0.26,5,5,0,0,0,5.22-4.08m7.29,5.52A18.63,18.63,0,1,1,49.43,32.28,18.63,18.63,0,0,1,68.06,50.9m8.47,0A27.1,27.1,0,1,0,49.43,78a27.1,27.1,0,0,0,27.1-27.1"/></svg>